<svg xmlns="http://www.w3.org/2000/svg" viewBox="0 0 481.13 693.71"><defs><style>.carb1,.carb4,.carb5{fill:#fff;}.carb1,.carb2,.carb3,.carb4,.carb5,.carb6{stroke:#000;stroke-width:3px;}.carb1,.carb2,.carb3,.carb5,.carb6{stroke-miterlimit:10;}.carb2,.carb3{fill:#c4c4c4;}.carb2,.carb5{opacity:0.93;}.carb4{stroke-linecap:round;stroke-linejoin:round;}.carb6{fill:none;}</style></defs><title>carb</title><g id="rfdoor"><path id="panel" class="carb1" d="M348,366.78l43.5-6.5s11.25-3.75,19.75-5,57.25-1.5,57.25-1.5l10.44,3.85V226.52l-10.1-3.79s-45.84-4.2-59.34-1.7S346,295.28,348,366.78Z"/><path id="window" class="carb2" d="M355.19,357.47s1.92-57.36,42.17-117c2.24-3.32-5.62,106-5.62,106Z"/><g id="handle"><path class="carb1" d="M414,319.53c-5.22-.31-6.72,12-6.72,12s-.75,7.5,5.25,8.5,7.25-8,7.25-10.25S418.18,319.78,414,319.53Z"/><path d="M409.9,347.28s2.17,3.75,4.67,0,.85-26.59.85-26.59-4.52-.91-4.77,4.92S409.9,347.28,409.9,347.28Z"/></g><path id="panel-2" data-name="panel" class="carb1" d="M133.15,366.78l-43.5-6.5s-11.25-3.75-19.75-5-57.25-1.5-57.25-1.5L2.2,357.63V226.52l10.1-3.79s45.85-4.2,59.35-1.7S135.15,295.28,133.15,366.78Z"/><path id="window-2" data-name="window" class="carb2" d="M125.94,357.47s-1.92-57.36-42.17-117c-2.24-3.32,5.63,106,5.63,106Z"/><g id="handle-2" data-name="handle"><path class="carb1" d="M67.18,319.53c5.21-.31,6.72,12,6.72,12s.75,7.5-5.25,8.5-7.25-8-7.25-10.25S63,319.78,67.18,319.53Z"/><path d="M71.23,347.28s-2.17,3.75-4.67,0-.85-26.59-.85-26.59,4.52-.91,4.77,4.92S71.23,347.28,71.23,347.28Z"/></g></g><g id="rfender"><path id="light" class="carb3" d="M421.84,38.39C412.38,49,407.33,68.71,406.19,78.48c-1.36,11.62,3,28.5,3,28.5s20.29-17.18,22.6-19,15.68-40.79,15.68-41.1S421.84,38.39,421.84,38.39Z"/><path id="panel-3" data-name="panel" class="carb4" d="M387,208.68l7,6.84s3.76-7.67,14.67-10.67c11.32-3.11,60.65,1.69,60.65,1.69l9.61,4.48V186.67H459.37s-42.35-7.41-40.84-48.5C420,97.34,449,87.81,478.83,88.64L478.2,27.5s-2.5-8.16-5.33-4.16-20.5,0-20.5,0L423.2,34.67s-.36,1-1.36,3.72,8.4,3.25,10.65,9.25-14.12,50-24.29,52.7c-3.4-.61-2-21.86-2-21.86s-12,29-11,47.52a243.82,243.82,0,0,1-1,36l-2,19.68-2.33,16.5Z"/><path id="light-2" data-name="light" class="carb3" d="M59.29,38.39C68.75,49,73.81,68.71,74.94,78.48,76.3,90.1,72,107,72,107S51.68,89.8,49.37,88,33.69,47.2,33.69,46.89,59.29,38.39,59.29,38.39Z"/><path id="panel-4" data-name="panel" class="carb4" d="M94.13,208.68l-7,6.84s-3.76-7.67-14.67-10.67c-11.32-3.11-60.64,1.69-60.64,1.69L2.2,211V186.67H21.77s42.34-7.41,40.83-48.5C61.1,97.34,32.14,87.81,2.3,88.64L2.93,27.5s2.5-8.16,5.34-4.16,20.5,0,20.5,0L57.93,34.67s.36,1,1.36,3.72-8.4,3.25-10.65,9.25,14.13,50,24.29,52.7c3.4-.61,2-21.86,2-21.86s12,29,11,47.52a243.82,243.82,0,0,0,1,36l2,19.68,2.34,16.5Z"/></g><g id="rrdoor"><path id="panel-5" data-name="panel" class="carb1" d="M348.28,383.45c-3.68,46.56,17.11,100.33,28.2,121.33,9.88,20.5,39.47-13.51,48.52-21.67,23.25-28.3,53.57-33.75,53.67-37.09s.26-72,.26-72l-11.76-4.49s-52.41,1.33-60.41,3.16a97.13,97.13,0,0,0-14.66,4.67S348.44,381.37,348.28,383.45Z"/><path class="carb3" d="M360.85,389.16l35.83-3.66-1,70.33-28.47,7.54S352.68,396.16,360.85,389.16Z"/><polygon class="carb3" points="371.68 470.72 377.54 489.59 395.79 485.65 396.79 464.15 371.68 470.72"/><g id="handle-3" data-name="handle"><path class="carb1" d="M412.38,453.69c-5.22-.31-6.72,12-6.72,12s-.75,7.5,5.25,8.5,7.25-8,7.25-10.25S416.6,453.94,412.38,453.69Z"/><path d="M408.33,481.44s2.16,3.75,4.66,0,.85-26.58.85-26.58-4.51-.92-4.76,4.92S408.33,481.44,408.33,481.44Z"/></g><path id="panel-6" data-name="panel" class="carb1" d="M132.86,383.45c3.68,46.56-17.11,100.33-28.2,121.33-9.89,20.5-39.48-13.51-48.53-21.67C32.88,454.81,2.56,449.36,2.46,446s-.26-72-.26-72L14,369.52s52.41,1.33,60.41,3.16A97.5,97.5,0,0,1,89,377.35S132.69,381.37,132.86,383.45Z"/><path class="carb3" d="M120.28,389.16,84.45,385.5l1,70.33,28.47,7.54S128.45,396.16,120.28,389.16Z"/><polygon class="carb3" points="109.45 470.72 103.59 489.59 85.34 485.65 84.34 464.15 109.45 470.72"/><g id="handle-4" data-name="handle"><path class="carb1" d="M68.75,453.69c5.22-.31,6.72,12,6.72,12s.75,7.5-5.25,8.5-7.25-8-7.25-10.25S64.53,453.94,68.75,453.69Z"/><path d="M72.81,481.44s-2.17,3.75-4.67,0-.85-26.58-.85-26.58,4.52-.92,4.77,4.92S72.81,481.44,72.81,481.44Z"/></g></g><g id="rquarter"><path id="panel-7" data-name="panel" class="carb5" d="M479.45,490.88s-58.17-5.89-58.33,49.44,58.33,48.34,58.33,48.34l-4.83,47S458,650.66,461.28,655,473,652.32,473,652.32s-4.33,19.17-9.67,18.84c-4.3-.27-23.87-.1-31.3,0a2.62,2.62,0,0,1-2.64-2.83c.13-1.71.28-3.62.28-4,0-.66-11.84-8-11.84-8s-18.83-2.66-20-.66-5.71-2.3-7.16-3.84c-4.38-4.62-5.84-7.83-7.84-11.33a41.34,41.34,0,0,1-3.3-9.15L380.17,524s29.73-8.5,45.44-24.55c9.58-11.94,18.68-18.73,34.64-28.45,5.17-3.15,15-7.3,18.07-7.67.45-.05.86-.09.86.36Z"/><path id="light-3" data-name="light" class="carb2" d="M406.78,654.32V640.16s-7.33-30.17-17-40.84-3,38.67-3,38.67,4.86,15.19,10.34,16.67C399.78,655.38,406.78,654.32,406.78,654.32Z"/><path id="panel-8" data-name="panel" class="carb5" d="M1.68,490.88S59.85,485,60,540.32,1.68,588.66,1.68,588.66l4.84,47s16.66,15,13.33,19.33-11.67-2.67-11.67-2.67,4.34,19.17,9.67,18.84c4.3-.27,23.88-.1,31.3,0a2.62,2.62,0,0,0,2.64-2.83c-.13-1.71-.27-3.62-.27-4,0-.66,11.83-8,11.83-8s18.83-2.66,20-.66,5.71-2.3,7.17-3.84c4.38-4.62,5.83-7.83,7.83-11.33a41.6,41.6,0,0,0,3.31-9.15L101,524s-29.73-8.5-45.44-24.55C46,487.53,36.84,480.74,20.88,471c-5.17-3.15-15-7.3-18.07-7.67-.44-.05-.86-.09-.86.36Z"/><path id="light-4" data-name="light" class="carb2" d="M74.35,654.32V640.16s7.33-30.17,17-40.84,3,38.67,3,38.67S89.49,653.18,84,654.66C81.36,655.38,74.35,654.32,74.35,654.32Z"/></g><g id="roof"><path class="carb1" d="M229.45,285.45c-24.39.09-44.88,1.64-71,8.06,19,70.58,13.85,116.28,0,185.08,14.29,3.62,41.11,6.77,71,10.61h22.23c29.9-3.84,56.72-7,71-10.61-13.85-68.8-19-114.5,0-185.08-26.12-6.42-46.61-8-71-8.06Z"/></g><g id="hood"><path class="carb6" d="M364.18,530.59S273.89,363.09,383,224.09a32.32,32.32,0,0,0-13.56-8.57s-109.8,141.57-5.3,348.07C364.85,547,364.18,530.59,364.18,530.59Z"/><path class="carb6" d="M229.45,25.15c-49.4,1.78-97.25,11-117.88,32.39-10.17,7.26-2.12,142.14,4.48,150.7,47.53-9.83,86.18-13.58,113.38-15.9h21.5c27.21,2.32,66.62,6.07,114.15,15.9,6.61-8.56,14.66-143.44,4.49-150.7-20.64-21.42-68.49-30.61-117.89-32.39Z"/><path class="carb3" d="M229.45,199.2c-37.72,2.16-77,6.14-110,16.32,6.79,10.25,30.22,51,35.53,69.92,30.28-6.42,52.47-8.36,74.47-8.87h22.23c22,.51,44.19,2.45,74.47,8.87,5.31-18.93,28.74-59.67,35.53-69.92-33-10.18-72.27-14.16-110-16.32Z"/><path class="carb6" d="M117,530.59s90.29-167.5-18.86-306.5a32.33,32.33,0,0,1,13.57-8.57S221.45,357.09,117,563.59C116.28,547,117,530.59,117,530.59Z"/></g><g id="decklid"><path class="carb3" d="M229.45,525.27c-13.28-2.52-45.34-6.58-84.3-12-4.31,12.47-17.46,42.08-26.81,59.69-.72,5.8-.2,7.9-.2,11,38.18,7.7,75.35,12.4,111.31,13.37h22.23c36-1,73.13-5.67,111.31-13.37,0-3.07.52-5.17-.2-11-9.34-17.61-22.5-47.22-26.81-59.69-39,5.4-71,9.46-84.3,12Z"/><path class="carb6" d="M229.45,494.09c-27.41-3.55-69.78-9.22-73.8-11-1.43,1.95-5.68,17-8.33,25.4l82.13,11.13h22.23l82.13-11.13c-2.65-8.36-6.9-23.45-8.33-25.4-4,1.76-46.39,7.43-73.8,11Z"/><path d="M219.58,688.11V676h3.95a4.6,4.6,0,0,1,3,.81,3,3,0,0,1,1,2.41,2.44,2.44,0,0,1-.48,1.5,3.19,3.19,0,0,1-1.31,1,2.76,2.76,0,0,1,1.54,1,3,3,0,0,1,.57,1.83,3.24,3.24,0,0,1-1.05,2.56,4.36,4.36,0,0,1-3,.93Zm1.59-6.93h2.41a2.51,2.51,0,0,0,1.67-.53,2,2,0,0,0,.05-2.87,2.88,2.88,0,0,0-1.77-.46h-2.36Zm0,1.27v4.35h2.63a2.57,2.57,0,0,0,1.76-.57,2,2,0,0,0,.64-1.59q0-2.19-2.37-2.19Z"/><path d="M236.83,684.94h-5.06l-1.14,3.17H229L233.61,676H235l4.62,12.09H238Zm-4.58-1.3h4.11L234.3,678Z"/><path d="M250.05,684.27a4.42,4.42,0,0,1-1.42,3,4.6,4.6,0,0,1-3.16,1,4.28,4.28,0,0,1-3.44-1.53,6.21,6.21,0,0,1-1.29-4.11v-1.16a6.76,6.76,0,0,1,.61-3,4.54,4.54,0,0,1,1.7-2,4.74,4.74,0,0,1,2.56-.69,4.38,4.38,0,0,1,3.09,1.08,4.54,4.54,0,0,1,1.35,3h-1.6a3.48,3.48,0,0,0-.9-2.1,2.71,2.71,0,0,0-1.94-.65,2.84,2.84,0,0,0-2.4,1.13,5.15,5.15,0,0,0-.86,3.21v1.18a5.32,5.32,0,0,0,.82,3.13,2.65,2.65,0,0,0,2.3,1.16,3.05,3.05,0,0,0,2-.6,3.33,3.33,0,0,0,.95-2.1Z"/><path d="M255.29,682.49,253.82,684v4.09h-1.6V676h1.6v6l5.37-6h1.92l-4.75,5.34,5.13,6.75h-1.91Z"/><path d="M222.24,9.21h-5.07v5.33h-1.59V2.46h7.48v1.3h-5.89V7.9h5.07Z"/><path d="M229.41,9.65h-2.84v4.89H225V2.46h4a4.74,4.74,0,0,1,3.14.93,3.35,3.35,0,0,1,1.1,2.7,3.32,3.32,0,0,1-.61,2,3.63,3.63,0,0,1-1.7,1.25l2.84,5.13v.1H232Zm-2.84-1.3H229a2.68,2.68,0,0,0,1.88-.62,2.06,2.06,0,0,0,.71-1.64,2.21,2.21,0,0,0-.67-1.72A2.86,2.86,0,0,0,229,3.76h-2.44Z"/><path d="M244.74,8.89a7.45,7.45,0,0,1-.6,3.1,4.52,4.52,0,0,1-1.69,2,4.68,4.68,0,0,1-6.81-2A7.28,7.28,0,0,1,235,9V8.13a7.42,7.42,0,0,1,.6-3.08,4.66,4.66,0,0,1,1.72-2,4.61,4.61,0,0,1,2.53-.71,4.66,4.66,0,0,1,2.56.7,4.55,4.55,0,0,1,1.71,2,7.45,7.45,0,0,1,.6,3.1Zm-1.59-.78a5.47,5.47,0,0,0-.86-3.3,3.08,3.08,0,0,0-4.8,0A5.39,5.39,0,0,0,236.6,8v.89a5.36,5.36,0,0,0,.88,3.27,3.06,3.06,0,0,0,4.8.07A5.44,5.44,0,0,0,243.15,9Z"/><path d="M256.42,14.54h-1.61l-6.08-9.31v9.31h-1.6V2.46h1.6l6.1,9.35V2.46h1.59Z"/><path d="M267.36,3.76h-3.89V14.54h-1.58V3.76H258V2.46h9.35Z"/></g><g id="trunk"><path class="carb1" d="M229.45,603.65C181,601.85,118,590.37,118,590.37v52.89s6.33,7.34,29.69,16.34c10.38,4,46.13,7.31,81.8,7.39h22.23c35.67-.08,71.43-3.39,81.81-7.39,23.35-9,29.68-16.34,29.68-16.34V590.37s-63.08,11.48-111.49,13.28Z"/></g></svg>
