<svg id="Layer_1" data-name="Layer 1" xmlns="http://www.w3.org/2000/svg" viewBox="0 0 1000 500"><defs><style>.cls-1{fill:red;}.cls-2{fill:#fff;}</style></defs><title>flag</title><path class="cls-1" d="M0,0H1000V500H0Z"/><path class="cls-2" d="M250,0H750V500H250Z"/><path class="cls-1" d="M500,46.88,465.88,110.5c-3.87,6.92-10.81,6.27-17.74,2.41l-24.7-12.79,18.41,97.73c3.87,17.85-8.55,17.85-14.68,10.13l-43.1-48.25-7,24.51c-.81,3.21-4.35,6.59-9.68,5.79l-54.5-11.46,14.32,52c3.06,11.59,5.45,16.38-3.1,19.43l-19.42,9.13,93.82,76.21a12.3,12.3,0,0,1,4.27,12.77l-8.21,26.94c32.3-3.72,61.24-9.32,93.56-12.77,2.86-.31,7.63,4.4,7.61,7.71l-4.28,98.72h15.71l-2.47-98.51c0-3.31,4.31-8.23,7.17-7.92,32.32,3.45,61.26,9.05,93.56,12.77l-8.21-26.94a12.3,12.3,0,0,1,4.27-12.77l93.82-76.21L675.89,250c-8.55-3-6.16-7.84-3.1-19.43l14.32-52L632.61,190c-5.33.8-8.87-2.58-9.68-5.79l-7-24.51L572.83,208c-6.13,7.72-18.55,7.72-14.68-10.13l18.41-97.73-24.7,12.79c-6.93,3.86-13.87,4.51-17.74-2.41"/></svg>