<svg xmlns="http://www.w3.org/2000/svg" viewBox="0 0 231.53 188.47"><defs><style>.randi1{fill:#fff;}.randi2,.randi3{stroke:#000;stroke-miterlimit:10;}.randi3{fill:none;}</style></defs><title>hb-randi</title><g id="Layer_1" data-name="Layer 1"><g id="lheadlight"><rect class="randi1" x="89.37" y="12.95" width="26.66" height="26.66"/><path d="M115.54,13.45V39.11H89.87V13.45h25.67m1-1H88.87V40.11h27.67V12.45Z"/></g><g id="rheadlight"><rect class="randi1" x="116.35" y="12.95" width="26.66" height="26.66"/><path d="M142.51,13.45V39.11H116.85V13.45h25.66m1-1H115.85V40.11h27.66V12.45Z"/></g><g id="rfrontdoor"><rect class="randi1" x="143.12" y="66.7" width="26.66" height="26.66"/><path d="M169.28,67.2V92.86H143.62V67.2h25.66m1-1H142.62V93.86h27.66V66.2Z"/></g><g id="rreardoor"><rect class="randi1" x="143.12" y="93.57" width="26.66" height="26.66"/><path d="M169.28,94.07v25.66H143.62V94.07h25.66m1-1H142.62v27.66h27.66V93.07Z"/></g><g id="lfrontdoor"><rect class="randi1" x="62.5" y="66.7" width="26.66" height="26.66"/><path d="M88.66,67.2V92.86H63V67.2H88.66m1-1H62V93.86H89.66V66.2Z"/></g><g id="lreardoor"><rect class="randi1" x="62.5" y="93.57" width="26.66" height="26.66"/><path d="M88.66,94.07v25.66H63V94.07H88.66m1-1H62v27.66H89.66V93.07Z"/></g><g id="ltaillight"><rect class="randi1" x="89.37" y="147.31" width="26.66" height="26.66"/><path d="M115.54,147.81v25.67H89.87V147.81h25.67m1-1H88.87v27.67h27.67V146.81Z"/></g><g id="rtaillight"><rect class="randi1" x="116.25" y="147.31" width="26.66" height="26.66"/><path d="M142.41,147.81v25.67H116.75V147.81h25.66m1-1H115.75v27.67h27.66V146.81Z"/></g><g id="trunk"><rect class="randi1" x="89.37" y="120.44" width="53.54" height="26.66"/><path d="M142.41,120.94V146.6H89.87V120.94h52.54m1-1H88.87V147.6h54.54V119.94Z"/></g><g id="hood"><rect class="randi1" x="89.37" y="39.82" width="53.54" height="26.66"/><path d="M142.41,40.32V66H89.87V40.32h52.54m1-1H88.87V67h54.54V39.32Z"/></g><g id="roof"><rect class="randi1" x="89.37" y="66.7" width="53.54" height="53.54"/><path d="M142.41,67.2v52.53H89.87V67.2h52.54m1-1H88.87v54.53h54.54V66.2Z"/></g><rect class="randi1" x="100.5" y="93.2" width="32" height="14"/><path d="M132,93.7v13H101v-13h31m1-1H100v15h33v-15Z"/></g><g id="Layer_2" data-name="Layer 2"><circle class="randi2" cx="102.7" cy="26.28" r="3.16"/><circle class="randi2" cx="128.79" cy="52.36" r="3.16"/><circle class="randi2" cx="116.14" cy="82.88" r="3.16"/><circle class="randi2" cx="75.83" cy="80.03" r="3.16"/><circle class="randi2" cx="75.83" cy="106.9" r="3.16"/><circle class="randi2" cx="101.14" cy="133.77" r="3.16"/><circle class="randi2" cx="102.7" cy="160.65" r="3.16"/><circle class="randi2" cx="129.58" cy="160.65" r="3.16"/><circle class="randi2" cx="156.45" cy="80.03" r="3.16"/><circle class="randi2" cx="156.45" cy="106.9" r="3.16"/><circle class="randi2" cx="129.68" cy="26.41" r="3.16"/><line class="randi3" x1="128.79" y1="52.36" x2="192.5" y2="52.2"/><path d="M106.46,101h-1.84v3.16h-1V96.37h2.59a3,3,0,0,1,2,.61,2.17,2.17,0,0,1,.71,1.75,2.07,2.07,0,0,1-.4,1.27,2.36,2.36,0,0,1-1.1.81l1.84,3.32v.06h-1.11Zm-1.84-.84h1.58a1.84,1.84,0,0,0,1.23-.4,1.36,1.36,0,0,0,.45-1.07,1.41,1.41,0,0,0-.43-1.11,1.82,1.82,0,0,0-1.25-.39h-1.58Z"/><path d="M116.38,100.54a4.79,4.79,0,0,1-.39,2,2.91,2.91,0,0,1-1.1,1.31,3.23,3.23,0,0,1-3.29,0,3.15,3.15,0,0,1-1.11-1.3,4.57,4.57,0,0,1-.4-1.94V100a4.81,4.81,0,0,1,.39-2,2.91,2.91,0,0,1,1.11-1.32,2.94,2.94,0,0,1,1.64-.46,3.06,3.06,0,0,1,1.66.45A3,3,0,0,1,116,98a4.79,4.79,0,0,1,.39,2Zm-1-.51a3.49,3.49,0,0,0-.56-2.13,2,2,0,0,0-3.1,0,3.43,3.43,0,0,0-.58,2.06v.58a3.51,3.51,0,0,0,.57,2.12,2,2,0,0,0,3.11,0,3.54,3.54,0,0,0,.56-2.09Z"/><path d="M123.94,100.54a4.79,4.79,0,0,1-.39,2,3,3,0,0,1-1.09,1.31,3.25,3.25,0,0,1-3.3,0,3.15,3.15,0,0,1-1.11-1.3,4.73,4.73,0,0,1-.4-1.94V100a4.81,4.81,0,0,1,.39-2,2.91,2.91,0,0,1,1.11-1.32,3,3,0,0,1,1.64-.46,3.06,3.06,0,0,1,1.66.45,2.89,2.89,0,0,1,1.1,1.32,4.79,4.79,0,0,1,.39,2Zm-1-.51a3.42,3.42,0,0,0-.56-2.13,2,2,0,0,0-3.1,0,3.43,3.43,0,0,0-.57,2.06v.58a3.51,3.51,0,0,0,.56,2.12,2,2,0,0,0,3.11,0,3.54,3.54,0,0,0,.56-2.09Z"/><path d="M129.8,100.74h-3.28v3.45h-1V96.37h4.84v.85h-3.81V99.9h3.28Z"/><path d="M106.6,4.87h-2.68V7.7h-.84V1.3h4V2h-3.12V4.18h2.68Z"/><path d="M110.4,5.11h-1.51V7.7h-.84V1.3h2.11a2.52,2.52,0,0,1,1.67.49,1.78,1.78,0,0,1,.58,1.44,1.78,1.78,0,0,1-.32,1,2,2,0,0,1-.9.66l1.5,2.72v0h-.9Zm-1.51-.69h1.3a1.5,1.5,0,0,0,1-.32,1.11,1.11,0,0,0,.37-.88,1.18,1.18,0,0,0-.35-.91,1.5,1.5,0,0,0-1-.32h-1.3Z"/><path d="M118.51,4.71a4,4,0,0,1-.31,1.64,2.38,2.38,0,0,1-.9,1.07,2.53,2.53,0,0,1-1.35.37,2.39,2.39,0,0,1-2.25-1.43,3.66,3.66,0,0,1-.33-1.6V4.3a3.83,3.83,0,0,1,.32-1.63,2.4,2.4,0,0,1,2.25-1.46,2.53,2.53,0,0,1,1.35.37,2.37,2.37,0,0,1,.91,1.08,4,4,0,0,1,.31,1.64Zm-.84-.42a2.87,2.87,0,0,0-.45-1.74,1.63,1.63,0,0,0-2.54,0,2.78,2.78,0,0,0-.47,1.69v.47a2.86,2.86,0,0,0,.46,1.73,1.63,1.63,0,0,0,2.54,0,2.81,2.81,0,0,0,.46-1.71Z"/><path d="M124.7,7.7h-.85l-3.22-4.93V7.7h-.85V1.3h.85l3.23,5V1.3h.84Z"/><path d="M130.49,2h-2.06V7.7h-.84V2h-2V1.3h5Z"/><path d="M105.41,186v-6.4h2.09a2.47,2.47,0,0,1,1.57.43,1.57,1.57,0,0,1,.52,1.28,1.28,1.28,0,0,1-.25.79,1.67,1.67,0,0,1-.7.54,1.44,1.44,0,0,1,.82.55,1.58,1.58,0,0,1,.3,1,1.71,1.71,0,0,1-.55,1.35,2.32,2.32,0,0,1-1.58.49Zm.84-3.67h1.28a1.29,1.29,0,0,0,.88-.28.92.92,0,0,0,.34-.75.94.94,0,0,0-.31-.77,1.53,1.53,0,0,0-.94-.24h-1.25Zm0,.68v2.3h1.4a1.37,1.37,0,0,0,.93-.3,1.11,1.11,0,0,0,.34-.84c0-.78-.42-1.16-1.26-1.16Z"/><path d="M114.54,184.36h-2.67l-.61,1.67h-.87l2.45-6.4h.73L116,186h-.86Zm-2.42-.69h2.17l-1.08-3Z"/><path d="M121.54,184a2.37,2.37,0,0,1-.75,1.57,2.44,2.44,0,0,1-1.67.55,2.25,2.25,0,0,1-1.82-.81,3.25,3.25,0,0,1-.68-2.18v-.61a3.67,3.67,0,0,1,.31-1.57,2.44,2.44,0,0,1,.91-1,2.52,2.52,0,0,1,1.35-.36,2.32,2.32,0,0,1,1.64.57,2.36,2.36,0,0,1,.71,1.57h-.85a1.85,1.85,0,0,0-.47-1.11,1.46,1.46,0,0,0-1-.34,1.53,1.53,0,0,0-1.27.59,2.81,2.81,0,0,0-.46,1.71v.62a2.81,2.81,0,0,0,.44,1.65,1.4,1.4,0,0,0,1.22.62,1.67,1.67,0,0,0,1.08-.32,1.75,1.75,0,0,0,.49-1.11Z"/><path d="M124.32,183.06l-.78.81V186h-.85v-6.4h.85v3.17l2.84-3.17h1l-2.52,2.83L127.6,186h-1Z"/><path d="M203.75,56.14h-1V52.52h-3.94v3.62h-1V48.32h1v3.36h3.94V48.32h1Z"/><path d="M211.59,52.48a5,5,0,0,1-.38,2,2.87,2.87,0,0,1-2.75,1.76,2.94,2.94,0,0,1-2.75-1.75,4.74,4.74,0,0,1-.41-2V52a4.62,4.62,0,0,1,.4-2,2.87,2.87,0,0,1,2.75-1.79A2.92,2.92,0,0,1,211.21,50a5,5,0,0,1,.38,2Zm-1-.5a3.54,3.54,0,0,0-.56-2.14,1.85,1.85,0,0,0-1.56-.74,1.82,1.82,0,0,0-1.54.74,3.42,3.42,0,0,0-.58,2.07v.57a3.49,3.49,0,0,0,.57,2.12,1.82,1.82,0,0,0,1.56.77,1.8,1.8,0,0,0,1.54-.73,3.43,3.43,0,0,0,.57-2.08Z"/><path d="M219.16,52.48a4.81,4.81,0,0,1-.39,2,2.91,2.91,0,0,1-1.1,1.31,3,3,0,0,1-1.65.45,2.94,2.94,0,0,1-1.64-.46,3,3,0,0,1-1.11-1.29,4.59,4.59,0,0,1-.4-2V52a4.77,4.77,0,0,1,.39-2,3,3,0,0,1,1.11-1.33,3.19,3.19,0,0,1,3.3,0,3,3,0,0,1,1.1,1.31,4.87,4.87,0,0,1,.39,2Zm-1-.5a3.54,3.54,0,0,0-.56-2.14,2,2,0,0,0-3.1,0,3.48,3.48,0,0,0-.58,2.07v.57a3.49,3.49,0,0,0,.57,2.12,1.84,1.84,0,0,0,1.56.77,1.82,1.82,0,0,0,1.55-.73,3.5,3.5,0,0,0,.56-2.08Z"/><path d="M220.7,56.14V48.32h2.21a3.54,3.54,0,0,1,1.8.45,3.08,3.08,0,0,1,1.22,1.28,4.37,4.37,0,0,1,.43,1.92v.5a4.1,4.1,0,0,1-.43,1.93,2.91,2.91,0,0,1-1.22,1.28,3.77,3.77,0,0,1-1.84.46Zm1-7V55.3h1.09a2.34,2.34,0,0,0,1.85-.75,3,3,0,0,0,.67-2.11V52a3.12,3.12,0,0,0-.63-2.07,2.25,2.25,0,0,0-1.77-.75Z"/><rect class="randi3" x="192.8" y="44.93" width="38.23" height="14.27"/><path d="M156.33,28.24H160v.84h-4.75V21.26h1Z"/><path d="M161.08,28.56a.64.64,0,0,1,.15-.43.6.6,0,0,1,.46-.17.63.63,0,0,1,.47.17.64.64,0,0,1,.15.43.6.6,0,0,1-.15.42.62.62,0,0,1-.47.16.54.54,0,0,1-.61-.58Z"/><path d="M172.84,29.08h-1V25.47h-3.94v3.61h-1V21.26h1v3.37h3.94V21.26h1Z"/><path d="M179.09,25.47h-3.38v2.77h3.93v.84h-5V21.26h4.92v.85h-3.88v2.52h3.38Z"/><path d="M185.24,27H182l-.74,2h-1.06l3-7.82h.91l3,7.82H186Zm-3-.85h2.66l-1.33-3.65Z"/><path d="M188.1,29.08V21.26h2.21a3.54,3.54,0,0,1,1.8.45A3,3,0,0,1,193.32,23a4.17,4.17,0,0,1,.44,1.91v.5a4.27,4.27,0,0,1-.43,1.94,3.08,3.08,0,0,1-1.22,1.28,3.77,3.77,0,0,1-1.84.45Zm1-7v6.13h1.09a2.37,2.37,0,0,0,1.85-.74,3,3,0,0,0,.67-2.11v-.46a3.09,3.09,0,0,0-.63-2.07,2.18,2.18,0,0,0-1.77-.75Z"/><path d="M199.07,28.24h3.71v.84H198V21.26h1Z"/><path d="M205.06,29.08h-1V21.26h1Z"/><path d="M212.72,28.06a2.34,2.34,0,0,1-1.11.85,4.39,4.39,0,0,1-1.65.28,3.2,3.2,0,0,1-1.7-.45,3,3,0,0,1-1.15-1.27,4.31,4.31,0,0,1-.41-1.92v-.68a4.11,4.11,0,0,1,.82-2.74,2.86,2.86,0,0,1,2.32-1,3,3,0,0,1,2,.62,2.72,2.72,0,0,1,.91,1.78h-1A1.71,1.71,0,0,0,209.84,22a1.82,1.82,0,0,0-1.57.73,3.64,3.64,0,0,0-.54,2.11v.64a3.35,3.35,0,0,0,.6,2.09,2,2,0,0,0,1.63.78,3.83,3.83,0,0,0,1-.13,1.64,1.64,0,0,0,.72-.43V26h-1.81v-.84h2.83Z"/><path d="M220.45,29.08h-1V25.47h-3.94v3.61h-1V21.26h1v3.37h3.94V21.26h1Z"/><path d="M227.53,22.11H225v7h-1v-7h-2.51v-.85h6.05Z"/><rect class="randi3" x="150.92" y="16.76" width="80.11" height="16.44"/><path d="M10.49,136.38a2.87,2.87,0,0,1-.91,1.92,3,3,0,0,1-2,.67,2.74,2.74,0,0,1-2.22-1,4,4,0,0,1-.84-2.66v-.75a4.45,4.45,0,0,1,.39-1.92A2.93,2.93,0,0,1,6,131.38a3.08,3.08,0,0,1,1.65-.44,2.84,2.84,0,0,1,2,.69,2.93,2.93,0,0,1,.87,1.93h-1a2.24,2.24,0,0,0-.59-1.36,1.73,1.73,0,0,0-1.25-.42,1.86,1.86,0,0,0-1.55.73,3.39,3.39,0,0,0-.56,2.08v.76a3.49,3.49,0,0,0,.53,2,1.73,1.73,0,0,0,1.49.75,2,2,0,0,0,1.32-.39,2.19,2.19,0,0,0,.61-1.36Z"/><path d="M17.92,135.21a4.79,4.79,0,0,1-.39,2,2.86,2.86,0,0,1-1.1,1.31,3.23,3.23,0,0,1-3.29,0,2.91,2.91,0,0,1-1.11-1.3,4.54,4.54,0,0,1-.4-1.94v-.57a4.81,4.81,0,0,1,.39-2,2.91,2.91,0,0,1,1.11-1.32,2.94,2.94,0,0,1,1.64-.46,3,3,0,0,1,1.65.45,2.91,2.91,0,0,1,1.11,1.32,4.79,4.79,0,0,1,.39,2Zm-1-.51a3.51,3.51,0,0,0-.56-2.13,1.83,1.83,0,0,0-1.56-.75,1.82,1.82,0,0,0-1.54.75,3.43,3.43,0,0,0-.58,2.06v.58a3.51,3.51,0,0,0,.57,2.12,1.84,1.84,0,0,0,1.56.77,1.82,1.82,0,0,0,1.55-.73,3.54,3.54,0,0,0,.56-2.09Z"/><path d="M21.15,136.4l.15,1,.22-.93L23.07,131h.87l1.51,5.46.21.95.17-1.06L27,131h1l-1.9,7.83h-.94l-1.61-5.7-.12-.6-.13.6-1.67,5.7h-.94L18.88,131h1Z"/><path d="M30.26,138H34v.85H29.22V131h1Z"/><path d="M37.91,139.54h-.86l3.27-8.5h.85Z"/><path d="M50.31,131.89H47.79v7h-1v-7H44.26V131h6.05Z"/><path d="M54.34,135.7H52.5v3.17h-1V131h2.59a3.1,3.1,0,0,1,2,.61,2.17,2.17,0,0,1,.71,1.75,2.07,2.07,0,0,1-.4,1.27,2.36,2.36,0,0,1-1.1.81l1.84,3.32v.07H56Zm-1.84-.84h1.58a1.79,1.79,0,0,0,1.23-.4,1.35,1.35,0,0,0,.45-1.07,1.41,1.41,0,0,0-.43-1.11,1.82,1.82,0,0,0-1.25-.39H52.5Z"/><path d="M63.75,131v5.32a2.52,2.52,0,0,1-.7,1.81,2.76,2.76,0,0,1-1.87.79h-.27a2.94,2.94,0,0,1-2-.69,2.45,2.45,0,0,1-.77-1.91V131h1v5.3a1.78,1.78,0,0,0,.46,1.32,2.15,2.15,0,0,0,2.68,0,1.77,1.77,0,0,0,.46-1.31V131Z"/><path d="M71.38,138.87h-1l-3.94-6v6h-1V131h1l4,6.06V131h1Z"/><path d="M75.2,135.23l-1,1v2.65h-1V131h1v3.87L77.72,131H79l-3.08,3.46,3.32,4.37H78Z"/><rect class="randi3" x="0.5" y="126.2" width="83" height="16"/><path d="M186.13,76.56h-1.34v2.31H184V73.18h1.88a2.2,2.2,0,0,1,1.48.44,1.58,1.58,0,0,1,.52,1.27,1.53,1.53,0,0,1-.29.92,1.67,1.67,0,0,1-.8.59l1.34,2.42v.05h-.81ZM184.79,76h1.15a1.27,1.27,0,0,0,.89-.29,1,1,0,0,0,.33-.77,1,1,0,0,0-.31-.81,1.32,1.32,0,0,0-.91-.29h-1.15Z"/><path d="M188.87,78.49a.5.5,0,0,1,.11-.32.43.43,0,0,1,.33-.12.42.42,0,0,1,.46.44.41.41,0,0,1-.12.3.45.45,0,0,1-.34.12.43.43,0,0,1-.33-.12A.44.44,0,0,1,188.87,78.49Z"/><path d="M196.19,76.35H193.8v2.52h-.75V73.18h3.53v.61H193.8v1.95h2.39Z"/><path d="M199.56,76.56h-1.34v2.31h-.75V73.18h1.88a2.18,2.18,0,0,1,1.48.44,1.55,1.55,0,0,1,.52,1.27,1.53,1.53,0,0,1-.29.92,1.67,1.67,0,0,1-.8.59l1.34,2.42v.05h-.81ZM198.22,76h1.16a1.25,1.25,0,0,0,.88-.29,1,1,0,0,0,.33-.77,1,1,0,0,0-.31-.81,1.31,1.31,0,0,0-.91-.29h-1.15Z"/><path d="M206.77,76.21a3.44,3.44,0,0,1-.28,1.45,2.1,2.1,0,0,1-.79,1,2.3,2.3,0,0,1-1.21.32,2.11,2.11,0,0,1-2-1.27,3.32,3.32,0,0,1-.3-1.41v-.41a3.32,3.32,0,0,1,.29-1.45,2.24,2.24,0,0,1,3.2-1,2.06,2.06,0,0,1,.8,1,3.46,3.46,0,0,1,.28,1.46Zm-.74-.37a2.53,2.53,0,0,0-.41-1.55,1.32,1.32,0,0,0-1.13-.55,1.3,1.3,0,0,0-1.12.55,2.39,2.39,0,0,0-.42,1.5v.42a2.53,2.53,0,0,0,.41,1.54,1.33,1.33,0,0,0,1.13.56,1.34,1.34,0,0,0,1.13-.53,2.62,2.62,0,0,0,.41-1.52Z"/><path d="M212.27,78.87h-.75l-2.87-4.39v4.39h-.75V73.18h.75l2.87,4.4v-4.4h.75Z"/><path d="M217.42,73.79h-1.83v5.08h-.75V73.79H213v-.61h4.4Z"/><path d="M184,86.87V81.18h1.61a2.58,2.58,0,0,1,1.31.33,2.2,2.2,0,0,1,.88.93,3,3,0,0,1,.31,1.39v.36a3,3,0,0,1-.31,1.41,2.09,2.09,0,0,1-.88.93,2.78,2.78,0,0,1-1.35.34Zm.75-5.08v4.46h.79a1.71,1.71,0,0,0,1.35-.54,2.23,2.23,0,0,0,.48-1.53v-.34a2.28,2.28,0,0,0-.45-1.5,1.65,1.65,0,0,0-1.29-.55Z"/><path d="M193.66,84.21a3.44,3.44,0,0,1-.28,1.45,2.12,2.12,0,0,1-.8,1,2.24,2.24,0,0,1-1.2.32,2.17,2.17,0,0,1-1.19-.33,2.14,2.14,0,0,1-.81-.94,3.32,3.32,0,0,1-.29-1.41v-.41a3.47,3.47,0,0,1,.28-1.45,2.22,2.22,0,0,1,.81-1,2.17,2.17,0,0,1,1.19-.33,2.22,2.22,0,0,1,1.21.33,2.18,2.18,0,0,1,.8,1,3.46,3.46,0,0,1,.28,1.46Zm-.74-.37a2.53,2.53,0,0,0-.41-1.55,1.44,1.44,0,0,0-2.26,0,2.52,2.52,0,0,0-.42,1.5v.42a2.54,2.54,0,0,0,.42,1.54,1.43,1.43,0,0,0,2.25,0,2.54,2.54,0,0,0,.42-1.52Z"/><path d="M199.16,84.21a3.44,3.44,0,0,1-.28,1.45,2.12,2.12,0,0,1-.8,1,2.24,2.24,0,0,1-1.2.32,2.17,2.17,0,0,1-1.19-.33,2.14,2.14,0,0,1-.81-.94,3.32,3.32,0,0,1-.29-1.41v-.41a3.47,3.47,0,0,1,.28-1.45,2.22,2.22,0,0,1,.81-1,2.17,2.17,0,0,1,1.19-.33,2.22,2.22,0,0,1,1.21.33,2.18,2.18,0,0,1,.8,1,3.46,3.46,0,0,1,.28,1.46Zm-.74-.37a2.53,2.53,0,0,0-.41-1.55,1.44,1.44,0,0,0-2.26,0,2.52,2.52,0,0,0-.42,1.5v.42a2.54,2.54,0,0,0,.42,1.54,1.43,1.43,0,0,0,2.25,0,2.54,2.54,0,0,0,.42-1.52Z"/><path d="M202.37,84.56H201v2.31h-.76V81.18h1.89a2.15,2.15,0,0,1,1.47.44,1.55,1.55,0,0,1,.52,1.27,1.46,1.46,0,0,1-.29.92,1.64,1.64,0,0,1-.79.59l1.33,2.42v.05h-.8ZM201,84h1.15a1.27,1.27,0,0,0,.89-.29,1,1,0,0,0,.33-.77,1,1,0,0,0-.32-.81,1.31,1.31,0,0,0-.91-.29H201Z"/><path d="M208,86.25h2.69v.62h-3.45V81.18H208Z"/><path d="M212.3,86.87h-.75V81.18h.75Z"/><path d="M218,86.87h-.75l-2.86-4.39v4.39h-.76V81.18h.76l2.87,4.4v-4.4H218Z"/><path d="M222.59,84.24h-2.46v2H223v.62h-3.61V81.18H223v.61h-2.82v1.83h2.46Z"/><path d="M226,84.56h-1.34v2.31h-.75V81.18h1.88a2.18,2.18,0,0,1,1.48.44,1.55,1.55,0,0,1,.52,1.27,1.53,1.53,0,0,1-.29.92,1.67,1.67,0,0,1-.8.59l1.34,2.42v.05h-.81ZM224.67,84h1.16a1.25,1.25,0,0,0,.88-.29,1,1,0,0,0,.33-.77,1,1,0,0,0-.31-.81,1.31,1.31,0,0,0-.91-.29h-1.15Z"/><rect class="randi3" x="180.53" y="68.7" width="50.5" height="22"/><path d="M16.3,78.25H19v.62H15.55V73.18h.75Z"/><path d="M19.75,78.49a.45.45,0,0,1,.12-.32.42.42,0,0,1,.33-.12.45.45,0,0,1,.34.12.5.5,0,0,1,.11.32.44.44,0,0,1-.11.3.45.45,0,0,1-.34.12.42.42,0,0,1-.33-.12A.41.41,0,0,1,19.75,78.49Z"/><path d="M27.08,76.35H24.69v2.52h-.75V73.18h3.52v.61H24.69v1.95h2.39Z"/><path d="M30.45,76.56H29.11v2.31h-.75V73.18h1.88a2.2,2.2,0,0,1,1.48.44,1.58,1.58,0,0,1,.52,1.27,1.53,1.53,0,0,1-.29.92,1.67,1.67,0,0,1-.8.59l1.34,2.42v.05h-.81ZM29.11,76h1.15a1.27,1.27,0,0,0,.89-.29,1,1,0,0,0,.33-.77,1,1,0,0,0-.31-.81,1.32,1.32,0,0,0-.91-.29H29.11Z"/><path d="M37.66,76.21a3.44,3.44,0,0,1-.28,1.45,2.12,2.12,0,0,1-.8,1,2.24,2.24,0,0,1-1.2.32,2.17,2.17,0,0,1-1.19-.33,2.14,2.14,0,0,1-.81-.94,3.32,3.32,0,0,1-.29-1.41v-.41a3.47,3.47,0,0,1,.28-1.45,2.22,2.22,0,0,1,.81-1,2.17,2.17,0,0,1,1.19-.33,2.22,2.22,0,0,1,1.21.33,2.18,2.18,0,0,1,.8,1,3.46,3.46,0,0,1,.28,1.46Zm-.74-.37a2.53,2.53,0,0,0-.41-1.55,1.44,1.44,0,0,0-2.26,0,2.52,2.52,0,0,0-.42,1.5v.42a2.54,2.54,0,0,0,.42,1.54,1.43,1.43,0,0,0,2.25,0,2.54,2.54,0,0,0,.42-1.52Z"/><path d="M43.16,78.87H42.4l-2.86-4.39v4.39h-.75V73.18h.75l2.87,4.4v-4.4h.75Z"/><path d="M48.31,73.79H46.48v5.08h-.75V73.79H43.91v-.61h4.4Z"/><path d="M4.18,86.87V81.18H5.79a2.58,2.58,0,0,1,1.31.33,2.14,2.14,0,0,1,.88.93,3,3,0,0,1,.32,1.39v.36A3.12,3.12,0,0,1,8,85.6a2.16,2.16,0,0,1-.89.93,2.74,2.74,0,0,1-1.34.34Zm.75-5.08v4.46h.79a1.71,1.71,0,0,0,1.35-.54,2.18,2.18,0,0,0,.49-1.53v-.34a2.28,2.28,0,0,0-.46-1.5,1.62,1.62,0,0,0-1.29-.55Z"/><path d="M13.81,84.21a3.44,3.44,0,0,1-.29,1.45,2.1,2.1,0,0,1-.79,1,2.3,2.3,0,0,1-1.21.32,2.11,2.11,0,0,1-2-1.27,3.32,3.32,0,0,1-.3-1.41v-.41a3.47,3.47,0,0,1,.29-1.45,2.27,2.27,0,0,1,.8-1,2.35,2.35,0,0,1,2.4,0,2.06,2.06,0,0,1,.8,1,3.46,3.46,0,0,1,.29,1.46Zm-.75-.37a2.53,2.53,0,0,0-.41-1.55,1.32,1.32,0,0,0-1.13-.55,1.3,1.3,0,0,0-1.12.55,2.52,2.52,0,0,0-.42,1.5v.42a2.53,2.53,0,0,0,.41,1.54,1.33,1.33,0,0,0,1.13.56,1.34,1.34,0,0,0,1.13-.53,2.54,2.54,0,0,0,.41-1.52Z"/><path d="M19.31,84.21A3.44,3.44,0,0,1,19,85.66a2.1,2.1,0,0,1-.79,1,2.3,2.3,0,0,1-1.21.32,2.11,2.11,0,0,1-2-1.27,3.32,3.32,0,0,1-.3-1.41v-.41A3.47,3.47,0,0,1,15,82.4a2.27,2.27,0,0,1,.8-1,2.35,2.35,0,0,1,2.4,0,2.06,2.06,0,0,1,.8,1,3.46,3.46,0,0,1,.29,1.46Zm-.75-.37a2.53,2.53,0,0,0-.41-1.55A1.32,1.32,0,0,0,17,81.74a1.3,1.3,0,0,0-1.12.55,2.52,2.52,0,0,0-.42,1.5v.42a2.53,2.53,0,0,0,.41,1.54,1.33,1.33,0,0,0,1.13.56,1.34,1.34,0,0,0,1.13-.53,2.54,2.54,0,0,0,.41-1.52Z"/><path d="M22.52,84.56H21.18v2.31h-.75V81.18h1.88a2.2,2.2,0,0,1,1.48.44,1.58,1.58,0,0,1,.52,1.27,1.53,1.53,0,0,1-.29.92,1.67,1.67,0,0,1-.8.59l1.34,2.42v.05h-.81ZM21.18,84h1.15a1.26,1.26,0,0,0,.89-.29,1,1,0,0,0,.33-.77,1,1,0,0,0-.31-.81,1.31,1.31,0,0,0-.91-.29H21.18Z"/><path d="M28.09,86.25h2.7v.62H27.34V81.18h.75Z"/><path d="M32.45,86.87H31.7V81.18h.75Z"/><path d="M38.19,86.87h-.76l-2.86-4.39v4.39h-.75V81.18h.75l2.87,4.4v-4.4h.75Z"/><path d="M42.74,84.24H40.27v2h2.86v.62H39.52V81.18h3.57v.61H40.27v1.83h2.47Z"/><path d="M46.15,84.56H44.82v2.31h-.76V81.18H46a2.15,2.15,0,0,1,1.47.44,1.55,1.55,0,0,1,.52,1.27,1.52,1.52,0,0,1-.28.92,1.72,1.72,0,0,1-.8.59l1.33,2.42v.05h-.8ZM44.82,84H46a1.27,1.27,0,0,0,.89-.29,1,1,0,0,0,.33-.77,1,1,0,0,0-.32-.81,1.3,1.3,0,0,0-.9-.29H44.82Z"/><rect class="randi3" x="0.5" y="68.7" width="50.5" height="22"/><path d="M21,106.25h2.69v.62H20.22v-5.69H21Z"/><path d="M24.43,106.49a.5.5,0,0,1,.11-.32.45.45,0,0,1,.34-.12.43.43,0,0,1,.33.12.45.45,0,0,1,.12.32.41.41,0,0,1-.12.3.43.43,0,0,1-.33.12.45.45,0,0,1-.34-.12A.44.44,0,0,1,24.43,106.49Z"/><path d="M28.61,106.87v-5.69h1.86a2.23,2.23,0,0,1,1.4.38,1.38,1.38,0,0,1,.46,1.13,1.17,1.17,0,0,1-.22.71,1.48,1.48,0,0,1-.62.47,1.34,1.34,0,0,1,.73.49,1.4,1.4,0,0,1,.27.86,1.52,1.52,0,0,1-.5,1.21,2.06,2.06,0,0,1-1.4.44Zm.75-3.27H30.5a1.17,1.17,0,0,0,.78-.24.83.83,0,0,0,.3-.67.85.85,0,0,0-.27-.69,1.39,1.39,0,0,0-.84-.21H29.36Zm0,.61v2H30.6a1.2,1.2,0,0,0,.83-.27,1,1,0,0,0,.3-.75c0-.68-.37-1-1.12-1Z"/><path d="M36.74,105.38H34.35l-.53,1.49H33l2.18-5.69h.65l2.18,5.69h-.77Zm-2.16-.62h1.93l-1-2.66Z"/><path d="M43,105.06a2.08,2.08,0,0,1-.66,1.39,2.18,2.18,0,0,1-1.49.49,2,2,0,0,1-1.62-.72,2.93,2.93,0,0,1-.6-1.93v-.55a3.19,3.19,0,0,1,.28-1.39,2.15,2.15,0,0,1,.8-.93,2.29,2.29,0,0,1,1.2-.32,2.06,2.06,0,0,1,1.46.51A2.11,2.11,0,0,1,43,103H42.2a1.69,1.69,0,0,0-.42-1,1.47,1.47,0,0,0-2,.23,2.36,2.36,0,0,0-.41,1.51v.55a2.47,2.47,0,0,0,.39,1.47,1.22,1.22,0,0,0,1.08.55,1.46,1.46,0,0,0,1-.28,1.58,1.58,0,0,0,.44-1Z"/><path d="M45.42,104.22l-.69.72v1.93H44v-5.69h.75V104l2.52-2.81h.91l-2.24,2.51,2.42,3.18h-.9Z"/><path d="M4.18,114.87v-5.69H5.79a2.58,2.58,0,0,1,1.31.33,2.14,2.14,0,0,1,.88.93,3,3,0,0,1,.32,1.39v.36A3.12,3.12,0,0,1,8,113.6a2.16,2.16,0,0,1-.89.93,2.74,2.74,0,0,1-1.34.34Zm.75-5.08v4.46h.79a1.71,1.71,0,0,0,1.35-.54,2.18,2.18,0,0,0,.49-1.53v-.34a2.28,2.28,0,0,0-.46-1.5,1.62,1.62,0,0,0-1.29-.55Z"/><path d="M13.81,112.21a3.44,3.44,0,0,1-.29,1.45,2.1,2.1,0,0,1-.79,1,2.3,2.3,0,0,1-1.21.32,2.11,2.11,0,0,1-2-1.27,3.32,3.32,0,0,1-.3-1.41v-.41a3.47,3.47,0,0,1,.29-1.45,2.27,2.27,0,0,1,.8-1,2.35,2.35,0,0,1,2.4,0,2.06,2.06,0,0,1,.8,1,3.46,3.46,0,0,1,.29,1.46Zm-.75-.37a2.53,2.53,0,0,0-.41-1.55,1.32,1.32,0,0,0-1.13-.55,1.3,1.3,0,0,0-1.12.55,2.52,2.52,0,0,0-.42,1.5v.42a2.53,2.53,0,0,0,.41,1.54,1.33,1.33,0,0,0,1.13.56,1.34,1.34,0,0,0,1.13-.53,2.54,2.54,0,0,0,.41-1.52Z"/><path d="M19.31,112.21a3.44,3.44,0,0,1-.29,1.45,2.1,2.1,0,0,1-.79,1,2.3,2.3,0,0,1-1.21.32,2.11,2.11,0,0,1-2-1.27,3.32,3.32,0,0,1-.3-1.41v-.41A3.47,3.47,0,0,1,15,110.4a2.27,2.27,0,0,1,.8-1,2.35,2.35,0,0,1,2.4,0,2.06,2.06,0,0,1,.8,1,3.46,3.46,0,0,1,.29,1.46Zm-.75-.37a2.53,2.53,0,0,0-.41-1.55,1.32,1.32,0,0,0-1.13-.55,1.3,1.3,0,0,0-1.12.55,2.52,2.52,0,0,0-.42,1.5v.42a2.53,2.53,0,0,0,.41,1.54,1.33,1.33,0,0,0,1.13.56,1.34,1.34,0,0,0,1.13-.53,2.54,2.54,0,0,0,.41-1.52Z"/><path d="M22.52,112.56H21.18v2.31h-.75v-5.69h1.88a2.2,2.2,0,0,1,1.48.44,1.58,1.58,0,0,1,.52,1.27,1.53,1.53,0,0,1-.29.92,1.67,1.67,0,0,1-.8.59l1.34,2.42v.05h-.81ZM21.18,112h1.15a1.26,1.26,0,0,0,.89-.29,1,1,0,0,0,.33-.77,1,1,0,0,0-.31-.81,1.31,1.31,0,0,0-.91-.29H21.18Z"/><path d="M28.09,114.25h2.7v.62H27.34v-5.69h.75Z"/><path d="M32.45,114.87H31.7v-5.69h.75Z"/><path d="M38.19,114.87h-.76l-2.86-4.39v4.39h-.75v-5.69h.75l2.87,4.4v-4.4h.75Z"/><path d="M42.74,112.24H40.27v2h2.86v.62H39.52v-5.69h3.57v.61H40.27v1.83h2.47Z"/><path d="M46.15,112.56H44.82v2.31h-.76v-5.69H46a2.15,2.15,0,0,1,1.47.44,1.55,1.55,0,0,1,.52,1.27,1.52,1.52,0,0,1-.28.92,1.72,1.72,0,0,1-.8.59l1.33,2.42v.05h-.8ZM44.82,112H46a1.27,1.27,0,0,0,.89-.29,1,1,0,0,0,.33-.77,1,1,0,0,0-.32-.81,1.3,1.3,0,0,0-.9-.29H44.82Z"/><rect class="randi3" x="0.5" y="96.7" width="50.5" height="22"/><path d="M186.13,104.56h-1.34v2.31H184v-5.69h1.88a2.2,2.2,0,0,1,1.48.44,1.58,1.58,0,0,1,.52,1.27,1.53,1.53,0,0,1-.29.92,1.67,1.67,0,0,1-.8.59l1.34,2.42v.05h-.81Zm-1.34-.61h1.15a1.27,1.27,0,0,0,.89-.29,1,1,0,0,0,.33-.77,1,1,0,0,0-.31-.81,1.32,1.32,0,0,0-.91-.29h-1.15Z"/><path d="M188.87,106.49a.5.5,0,0,1,.11-.32.43.43,0,0,1,.33-.12.42.42,0,0,1,.46.44.41.41,0,0,1-.12.3.45.45,0,0,1-.34.12.43.43,0,0,1-.33-.12A.44.44,0,0,1,188.87,106.49Z"/><path d="M193.05,106.87v-5.69h1.86a2.17,2.17,0,0,1,1.39.38,1.36,1.36,0,0,1,.47,1.13,1.12,1.12,0,0,1-.23.71,1.45,1.45,0,0,1-.61.47,1.38,1.38,0,0,1,.73.49,1.46,1.46,0,0,1,.26.86,1.52,1.52,0,0,1-.49,1.21,2.07,2.07,0,0,1-1.41.44Zm.75-3.27h1.13a1.2,1.2,0,0,0,.79-.24.83.83,0,0,0,.3-.67.82.82,0,0,0-.28-.69,1.35,1.35,0,0,0-.83-.21H193.8Zm0,.61v2H195a1.22,1.22,0,0,0,.83-.27,1,1,0,0,0,.3-.75c0-.68-.37-1-1.12-1Z"/><path d="M201.17,105.38h-2.38l-.54,1.49h-.77l2.17-5.69h.66l2.18,5.69h-.77Zm-2.15-.62H201l-1-2.66Z"/><path d="M207.39,105.06a2.08,2.08,0,0,1-.66,1.39,2.18,2.18,0,0,1-1.49.49,2,2,0,0,1-1.62-.72,2.88,2.88,0,0,1-.61-1.93v-.55a3.2,3.2,0,0,1,.29-1.39,2.08,2.08,0,0,1,.8-.93,2.29,2.29,0,0,1,1.2-.32,2,2,0,0,1,1.45.51,2.07,2.07,0,0,1,.64,1.4h-.75a1.63,1.63,0,0,0-.43-1,1.28,1.28,0,0,0-.91-.31,1.35,1.35,0,0,0-1.13.54,2.43,2.43,0,0,0-.4,1.51v.55a2.54,2.54,0,0,0,.38,1.47,1.25,1.25,0,0,0,1.09.55,1.42,1.42,0,0,0,.95-.28,1.58,1.58,0,0,0,.45-1Z"/><path d="M209.86,104.22l-.69.72v1.93h-.75v-5.69h.75V104l2.52-2.81h.91l-2.24,2.51,2.41,3.18h-.89Z"/><path d="M184,114.87v-5.69h1.61a2.58,2.58,0,0,1,1.31.33,2.2,2.2,0,0,1,.88.93,3,3,0,0,1,.31,1.39v.36a3,3,0,0,1-.31,1.41,2.09,2.09,0,0,1-.88.93,2.78,2.78,0,0,1-1.35.34Zm.75-5.08v4.46h.79a1.71,1.71,0,0,0,1.35-.54,2.23,2.23,0,0,0,.48-1.53v-.34a2.28,2.28,0,0,0-.45-1.5,1.65,1.65,0,0,0-1.29-.55Z"/><path d="M193.66,112.21a3.44,3.44,0,0,1-.28,1.45,2.12,2.12,0,0,1-.8,1,2.24,2.24,0,0,1-1.2.32,2.17,2.17,0,0,1-1.19-.33,2.14,2.14,0,0,1-.81-.94,3.32,3.32,0,0,1-.29-1.41v-.41a3.47,3.47,0,0,1,.28-1.45,2.22,2.22,0,0,1,.81-1,2.17,2.17,0,0,1,1.19-.33,2.22,2.22,0,0,1,1.21.33,2.18,2.18,0,0,1,.8,1,3.46,3.46,0,0,1,.28,1.46Zm-.74-.37a2.53,2.53,0,0,0-.41-1.55,1.44,1.44,0,0,0-2.26,0,2.52,2.52,0,0,0-.42,1.5v.42a2.54,2.54,0,0,0,.42,1.54,1.43,1.43,0,0,0,2.25,0,2.54,2.54,0,0,0,.42-1.52Z"/><path d="M199.16,112.21a3.44,3.44,0,0,1-.28,1.45,2.12,2.12,0,0,1-.8,1,2.24,2.24,0,0,1-1.2.32,2.17,2.17,0,0,1-1.19-.33,2.14,2.14,0,0,1-.81-.94,3.32,3.32,0,0,1-.29-1.41v-.41a3.47,3.47,0,0,1,.28-1.45,2.22,2.22,0,0,1,.81-1,2.17,2.17,0,0,1,1.19-.33,2.22,2.22,0,0,1,1.21.33,2.18,2.18,0,0,1,.8,1,3.46,3.46,0,0,1,.28,1.46Zm-.74-.37a2.53,2.53,0,0,0-.41-1.55,1.44,1.44,0,0,0-2.26,0,2.52,2.52,0,0,0-.42,1.5v.42a2.54,2.54,0,0,0,.42,1.54,1.43,1.43,0,0,0,2.25,0,2.54,2.54,0,0,0,.42-1.52Z"/><path d="M202.37,112.56H201v2.31h-.76v-5.69h1.89a2.15,2.15,0,0,1,1.47.44,1.55,1.55,0,0,1,.52,1.27,1.46,1.46,0,0,1-.29.92,1.64,1.64,0,0,1-.79.59l1.33,2.42v.05h-.8ZM201,112h1.15a1.27,1.27,0,0,0,.89-.29,1,1,0,0,0,.33-.77,1,1,0,0,0-.32-.81,1.31,1.31,0,0,0-.91-.29H201Z"/><path d="M208,114.25h2.69v.62h-3.45v-5.69H208Z"/><path d="M212.3,114.87h-.75v-5.69h.75Z"/><path d="M218,114.87h-.75l-2.86-4.39v4.39h-.76v-5.69h.76l2.87,4.4v-4.4H218Z"/><path d="M222.59,112.24h-2.46v2H223v.62h-3.61v-5.69H223v.61h-2.82v1.83h2.46Z"/><path d="M226,112.56h-1.34v2.31h-.75v-5.69h1.88a2.18,2.18,0,0,1,1.48.44,1.55,1.55,0,0,1,.52,1.27,1.53,1.53,0,0,1-.29.92,1.67,1.67,0,0,1-.8.59l1.34,2.42v.05h-.81Zm-1.34-.61h1.16a1.25,1.25,0,0,0,.88-.29,1,1,0,0,0,.33-.77,1,1,0,0,0-.31-.81,1.31,1.31,0,0,0-.91-.29h-1.15Z"/><rect class="randi3" x="180.53" y="96.7" width="50.5" height="22"/><line class="randi3" x1="157" y1="79.7" x2="180.5" y2="79.2"/><line class="randi3" x1="157" y1="106.7" x2="181" y2="106.7"/><path d="M7.74,26.92H5.91v3.16h-1V22.26H7.46a3.05,3.05,0,0,1,2,.6,2.17,2.17,0,0,1,.71,1.76,2.13,2.13,0,0,1-.39,1.27,2.36,2.36,0,0,1-1.1.81L10.55,30v.06H9.44Zm-1.83-.84H7.49a1.81,1.81,0,0,0,1.22-.4,1.34,1.34,0,0,0,.46-1.07,1.42,1.42,0,0,0-.44-1.11,1.78,1.78,0,0,0-1.25-.39H5.91Z"/><path d="M11.51,29.56a.6.6,0,0,1,.16-.43.59.59,0,0,1,.46-.17.62.62,0,0,1,.46.17.6.6,0,0,1,.16.43.57.57,0,0,1-.16.42.61.61,0,0,1-.46.16.59.59,0,0,1-.46-.16A.57.57,0,0,1,11.51,29.56Z"/><path d="M23.28,30.08h-1V26.47H18.3v3.61h-1V22.26h1v3.37h3.94V22.26h1Z"/><path d="M29.53,26.47H26.14v2.77h3.94v.84h-5V22.26H30v.85H26.14v2.52h3.39Z"/><path d="M35.68,28H32.4l-.73,2H30.6l3-7.82h.9l3,7.82h-1Zm-3-.85h2.66L34,23.54Z"/><path d="M38.54,30.08V22.26h2.2a3.57,3.57,0,0,1,1.81.45A3.08,3.08,0,0,1,43.76,24a4.17,4.17,0,0,1,.43,1.91v.5a4.26,4.26,0,0,1-.42,1.94,3.14,3.14,0,0,1-1.22,1.28,3.81,3.81,0,0,1-1.85.45Zm1-7v6.13h1.08a2.37,2.37,0,0,0,1.86-.74,3.08,3.08,0,0,0,.66-2.11v-.46a3.14,3.14,0,0,0-.62-2.07,2.19,2.19,0,0,0-1.78-.75Z"/><path d="M49.51,29.24h3.7v.84H48.47V22.26h1Z"/><path d="M55.5,30.08h-1V22.26h1Z"/><path d="M63.16,29.06a2.44,2.44,0,0,1-1.11.85,4.48,4.48,0,0,1-1.66.28,3.22,3.22,0,0,1-1.7-.45,3,3,0,0,1-1.14-1.27,4.45,4.45,0,0,1-.42-1.92v-.68A4.11,4.11,0,0,1,58,23.13a2.88,2.88,0,0,1,2.32-1,2.93,2.93,0,0,1,2,.62,2.73,2.73,0,0,1,.92,1.78h-1A1.71,1.71,0,0,0,60.28,23a1.81,1.81,0,0,0-1.57.73,3.5,3.5,0,0,0-.54,2.11v.64a3.35,3.35,0,0,0,.6,2.09,1.94,1.94,0,0,0,1.63.78,3.81,3.81,0,0,0,1-.13,1.64,1.64,0,0,0,.72-.43V27H60.32v-.84h2.84Z"/><path d="M70.89,30.08h-1V26.47H65.91v3.61h-1V22.26h1v3.37h3.94V22.26h1Z"/><path d="M78,23.11H75.45v7h-1v-7H71.92v-.85h6Z"/><rect class="randi3" x="0.5" y="17.76" width="80.11" height="16.44"/><path d="M159.57,164.24h3.7v.84h-4.74v-7.82h1Z"/><path d="M164.31,164.56a.65.65,0,0,1,.16-.43.59.59,0,0,1,.46-.17.57.57,0,0,1,.62.6.57.57,0,0,1-.16.42.6.6,0,0,1-.46.16.59.59,0,0,1-.46-.16A.61.61,0,0,1,164.31,164.56Z"/><path d="M175.25,158.11h-2.51v7h-1v-7h-2.51v-.85h6Z"/><path d="M180.31,163H177l-.73,2h-1.07l3-7.82h.9l3,7.82h-1.06Zm-3-.85H180l-1.33-3.65Z"/><path d="M184.27,165.08h-1v-7.82h1Z"/><path d="M187.2,164.24h3.7v.84h-4.74v-7.82h1Z"/><path d="M195.84,164.24h3.7v.84H194.8v-7.82h1Z"/><path d="M201.83,165.08h-1v-7.82h1Z"/><path d="M209.49,164.06a2.44,2.44,0,0,1-1.11.85,4.48,4.48,0,0,1-1.66.28,3.22,3.22,0,0,1-1.7-.45,3,3,0,0,1-1.14-1.27,4.31,4.31,0,0,1-.42-1.92v-.68a4.11,4.11,0,0,1,.82-2.74,2.88,2.88,0,0,1,2.32-1,2.94,2.94,0,0,1,2,.62,2.77,2.77,0,0,1,.92,1.78h-1a1.7,1.7,0,0,0-1.84-1.56,1.81,1.81,0,0,0-1.57.73,3.5,3.5,0,0,0-.54,2.11v.64a3.35,3.35,0,0,0,.6,2.09,1.94,1.94,0,0,0,1.62.78,3.83,3.83,0,0,0,1-.13,1.64,1.64,0,0,0,.72-.43V162h-1.81v-.84h2.84Z"/><path d="M217.21,165.08h-1v-3.61h-3.94v3.61h-1v-7.82h1v3.37h3.94v-3.37h1Z"/><path d="M224.29,158.11h-2.51v7h-1v-7h-2.5v-.85h6Z"/><rect class="randi3" x="150.92" y="152.76" width="80.11" height="16.44"/><path d="M11,161.92H9.14v3.16h-1v-7.82h2.59a3.1,3.1,0,0,1,2,.6,2.2,2.2,0,0,1,.71,1.76,2.07,2.07,0,0,1-.4,1.27,2.36,2.36,0,0,1-1.1.81L13.78,165v.06h-1.1Zm-1.84-.84h1.59a1.81,1.81,0,0,0,1.22-.4,1.36,1.36,0,0,0,.45-1.07A1.41,1.41,0,0,0,12,158.5a1.8,1.8,0,0,0-1.25-.39H9.14Z"/><path d="M14.75,164.56a.64.64,0,0,1,.15-.43.6.6,0,0,1,.46-.17.56.56,0,0,1,.62.6.6.6,0,0,1-.15.42.64.64,0,0,1-.47.16.54.54,0,0,1-.61-.58Z"/><path d="M25.69,158.11H23.18v7h-1v-7H19.64v-.85h6.05Z"/><path d="M30.74,163H27.47l-.74,2H25.67l3-7.82h.91l3,7.82H31.49Zm-3-.85h2.66l-1.33-3.65Z"/><path d="M34.71,165.08h-1v-7.82h1Z"/><path d="M37.63,164.24h3.71v.84H36.59v-7.82h1Z"/><path d="M46.27,164.24H50v.84H45.24v-7.82h1Z"/><path d="M52.26,165.08h-1v-7.82h1Z"/><path d="M59.92,164.06a2.34,2.34,0,0,1-1.11.85,4.44,4.44,0,0,1-1.66.28,3.19,3.19,0,0,1-1.69-.45,3,3,0,0,1-1.15-1.27,4.45,4.45,0,0,1-.42-1.92v-.68a4.11,4.11,0,0,1,.83-2.74,2.86,2.86,0,0,1,2.32-1,3,3,0,0,1,2,.62,2.72,2.72,0,0,1,.91,1.78h-1A1.71,1.71,0,0,0,57,158a1.82,1.82,0,0,0-1.57.73,3.5,3.5,0,0,0-.54,2.11v.64a3.35,3.35,0,0,0,.6,2.09,2,2,0,0,0,1.63.78,3.7,3.7,0,0,0,1-.13,1.67,1.67,0,0,0,.73-.43V162H57.08v-.84h2.84Z"/><path d="M67.65,165.08h-1v-3.61H62.67v3.61h-1v-7.82h1v3.37h3.94v-3.37h1Z"/><path d="M74.73,158.11H72.21v7h-1v-7H68.68v-.85h6Z"/><rect class="randi3" x="0.5" y="152.76" width="80.11" height="16.44"/><line class="randi3" x1="129.5" y1="160.2" x2="150.5" y2="160.2"/><line class="randi3" x1="102.5" y1="160.2" x2="80.5" y2="160.2"/><line class="randi3" x1="101.5" y1="134.2" x2="83.5" y2="134.2"/><line class="randi3" x1="75.5" y1="107.2" x2="51.5" y2="107.2"/><line class="randi3" x1="75.5" y1="80.2" x2="51.5" y2="80.2"/><line class="randi3" x1="102.5" y1="26.2" x2="80.5" y2="26.2"/><line class="randi3" x1="116" y1="82.7" x2="116" y2="92.7"/></g></svg>
