<svg xmlns="http://www.w3.org/2000/svg" viewBox="0 0 448.81 601.77"><defs><style>.cls-1{fill:#111;}.cls-1,.cls-2,.cls-3,.cls-4{stroke:#333;stroke-miterlimit:10;}.cls-2{fill:#fff;stroke-width:7px;}.cls-3{fill:#e17e7f;}.cls-4{fill:#f4f4f4;stroke-width:3px;}.cls-5{fill:#333;}</style></defs><title>logo-bw</title><g id="Layer_2" data-name="Layer 2"><rect class="cls-1" x="56.76" y="253.92" width="102.79" height="70.99" transform="translate(-58.22 29.07) rotate(-12.09)"/><path class="cls-1" d="M63.39,337.88,47.47,263.54,152.9,241l15.93,74.35Zm-9.94-70.47L67.27,331.9l95.57-20.47L149,246.94Z"/><path class="cls-2" d="M78.14,370.88c-11.84-.66,25.62-73.16,25.62-73.16s22.87,15,82.49-2c0,0,4.32,12.39,3,17.18s-12.68,12.85-16.7,24.37c-2.71,14.44-19.71,33-26.53,40.79-4.73,5.48-16.49,16.29-23.39,18L104,453.21s-51.36,16.84-60.72,2.86c-15.26-19.68,9.84-77,41.13-81.32C84,370.1,84.18,371.22,78.14,370.88Z"/><path class="cls-2" d="M172.23,264.63S151.71,303,144.33,306c-8.49,3.46-22.82-4-25.49-13.48,0,0,27.65-42.73,29.1-48S177.72,244.06,172.23,264.63Z"/><path class="cls-2" d="M173.87,265.62s-2.73,3.71-6.19,9.07c-2.94,4.54-17.48,23-17.86,28.64s16.32,16.79,23.32,13,16.11-16,20.46-28.64c3.43-11.54-6-19.61-6-19.61S181,262.49,173.87,265.62Z"/><path class="cls-2" d="M148.74,245.08s.36-26.25-28.92-18.39c0,0-9.45,17.35-10.18,21s-15.31,26.5-15,27.3.23,18.55,25.59,17Z"/><path class="cls-2" d="M120.07,227.12s-3.34-20.83-24.35-17.61c-14.15,3.48-18.22,7.34-21.18,11.4L73,247.1l28.77,17.38Z"/><path class="cls-2" d="M40.74,352.23S-2.42,423,4.19,427.37,45,457.65,45,457.65,60.06,396.11,90,373.28c17.6-17.27,22.56-53.35,21.53-63s-23.31-35.07-23.31-35.07-13.67,1.73-16.28,1.1-.58-9.38,1.88-6.87,10.88,3.49,10.88,3.49L98,271c20.6-.34,22-16.52,22-16.52l-10.81-6.86c-2.86-4.41-18-11.78-18-11.78s2.77,2.52-10.88-10.92-27.44,1.89-27.44,1.89c-12.38,11.91-27,36-30.75,46.08-3.71,5-4.15,15.66-1.88,18s11.21,26.65,11.21,26.65c5.65,15.54,6.2,21.09,9.33,34.62a7.76,7.76,0,0,0,.81,2"/><path id="nail" class="cls-3" d="M104.26,263.54s13.43-3.59,15.2-9.48L94.51,241.13a9,9,0,0,0-6,7C87.49,253.81,103.38,264.69,104.26,263.54Z"/><path class="cls-4" d="M94.41,242.5a7.75,7.75,0,0,0-4.66,5.89c-.15.85.37,2.16,1.47,3.67,3.41,4.72,11,9.76,12.69,10.27h0c3.28-.88,11.66-3.87,13.91-7.69Z"/><path class="cls-5" d="M253,321.06a19.83,19.83,0,1,1,19.39-24h0a19.88,19.88,0,0,1-19.39,24Zm0-31.6a11.75,11.75,0,0,0-9.89,5.37,11.76,11.76,0,1,0,21.37,3.93h0a11.77,11.77,0,0,0-11.48-9.3Z"/><path class="cls-5" d="M256.67,271.36,247.6,271c.12-3.35-1.13-4.78-2.08-5.56-5.14-4.21-18.1-2.35-22.24-1.36a4.53,4.53,0,0,1-3.81-8L440.76,86.55l5.52,7.2L237.33,253.85c5,.31,10.17,1.52,13.94,4.61C253.87,260.58,256.92,264.56,256.67,271.36Z"/><path class="cls-5" d="M211.59,233.17a24,24,0,1,1,23.46-29h0a24,24,0,0,1-18.43,28.48A23.46,23.46,0,0,1,211.59,233.17Zm0-38.92a15.32,15.32,0,0,0-3.15.33,14.93,14.93,0,1,0,17.71,11.47h0a14.93,14.93,0,0,0-14.56-11.8Z"/><rect class="cls-5" x="201.72" y="95.56" width="241.12" height="9.07" transform="translate(23.85 257.66) rotate(-45.09)"/><path class="cls-5" d="M157.32,127.79A18.8,18.8,0,0,1,139,112.94a18.78,18.78,0,1,1,36.73-7.87h0a18.81,18.81,0,0,1-14.43,22.3A19.3,19.3,0,0,1,157.32,127.79Zm.05-30a11.22,11.22,0,1,0,11,8.87A11.21,11.21,0,0,0,157.37,97.78Z"/><path id="_2streak" data-name="2streak" class="cls-5" d="M283.92,0,168.45,173.67c2.2-12.16,2.13-25.58-3.83-36.68H153.77c17.87,22-4.58,65.6-4.82,66a4.54,4.54,0,0,0,7.8,4.62L291.47,5Z"/><path class="cls-5" d="M41.51,190a24.69,24.69,0,0,1-24.38-21.17,24.69,24.69,0,1,1,48.88-7h0a24.72,24.72,0,0,1-20.92,28A24,24,0,0,1,41.51,190Zm.09-40.32a15.72,15.72,0,0,0-2.26.16A15.62,15.62,0,1,0,57,163.1h0A15.6,15.6,0,0,0,41.6,149.7Z"/><path class="cls-5" d="M106.47,190A4.53,4.53,0,0,1,102,186.4c-1.14-5.48-6-20.76-14.5-25.69a12.06,12.06,0,0,0-10.38-.77l-2.87-8.61a21,21,0,0,1,17.8,1.53c5.61,3.24,9.74,8.92,12.68,14.58L131.21,1.79l9,1.44L111,186.2a4.55,4.55,0,0,1-4.38,3.82Z"/></g><g id="Layer_3" data-name="Layer 3"><path class="cls-5" d="M6.28,508.67H27.42q10.92,0,16.59,5.18t5.67,14.42v8.4q0,11.9-9.94,15.26Q51.08,555,51.08,567.47v12.6q0,9.38-5.6,14.49t-16.66,5.11H6.28Zm33.6,28v-8.4a10.86,10.86,0,0,0-3.29-7.84q-3.3-3.36-9.17-3.36H16.08v31.5H27.42q5.88,0,9.17-3.64A12,12,0,0,0,39.88,536.67Zm1.4,43.4v-12.6a11.92,11.92,0,0,0-3.36-8.19,11.69,11.69,0,0,0-9.1-3.71H16.08v35.7H28.82q5.88,0,9.17-3.29A10.79,10.79,0,0,0,41.28,580.07Z"/><path class="cls-5" d="M113.38,582.17v-73.5h9.8v73.5q0,9.38-6,14.49t-17.78,5.11q-11.83,0-17.85-5.11t-6-14.49v-73.5h9.8v73.5q0,11.21,14,11.2T113.38,582.17Z"/><path class="cls-5" d="M194.3,582.17q0,19.61-23.66,19.6T147,582.17v-11.9h9.8v12.46a9.46,9.46,0,0,0,3.5,7.84q3.5,2.8,10.36,2.8t10.36-2.8a9.26,9.26,0,0,0,3.5-7.63,23,23,0,0,0-1.05-7.7,17.72,17.72,0,0,0-4.27-6.09l-24.64-24.08a25.29,25.29,0,0,1-5.95-8.47A28.82,28.82,0,0,1,147,526.17q0-9.37,5.81-14.49t17.57-5.11q22.53,0,22.54,19.6v11.9h-9.8V525.61a9.75,9.75,0,0,0-3.29-7.84q-3.3-2.81-9.87-2.8t-9.87,2.8a9.55,9.55,0,0,0-3.29,7.7,23.93,23.93,0,0,0,1,7.7,15.22,15.22,0,0,0,4.34,5.88l25.06,24.08a27.77,27.77,0,0,1,5.6,8.61A30.33,30.33,0,0,1,194.3,582.17Z"/><path class="cls-5" d="M255.89,508.67v8.4h-18.2v82.6h-9.8v-82.6h-18.2v-8.4Z"/><path class="cls-5" d="M315.39,599.67h-41.3v-91H314v8.4h-30.1v32.2h24.5v8.4h-24.5v33.6h31.5Z"/><path class="cls-5" d="M346.19,599.67h-9.8v-91h21.14q10.92,0,16.59,5.18t5.67,14.42v19.6q0,14.28-12.32,18.2l17.22,33.6H373.91l-16.38-32.2H346.19Zm23.8-51.8v-19.6q0-5.32-3.22-8.26c-2.15-2-5.22-2.94-9.24-2.94H346.19v42h11.34Q370,559.07,370,547.87Z"/><path class="cls-5" d="M448.81,582.17q0,19.61-23.66,19.6t-23.66-19.6v-11.9h9.8v12.46a9.49,9.49,0,0,0,3.5,7.84q3.49,2.8,10.36,2.8t10.36-2.8a9.26,9.26,0,0,0,3.5-7.63,23,23,0,0,0-1.05-7.7,17.58,17.58,0,0,0-4.27-6.09l-24.64-24.08a25.44,25.44,0,0,1-5.95-8.47,29,29,0,0,1-1.61-10.43q0-9.37,5.81-14.49t17.57-5.11q22.54,0,22.54,19.6v11.9h-9.8V525.61a9.75,9.75,0,0,0-3.29-7.84Q431,515,424.45,515t-9.87,2.8a9.58,9.58,0,0,0-3.29,7.7,24.21,24.21,0,0,0,1,7.7,15.22,15.22,0,0,0,4.34,5.88l25.06,24.08a27.59,27.59,0,0,1,5.6,8.61A30.09,30.09,0,0,1,448.81,582.17Z"/><path class="cls-5" d="M235.28,463.67h-9.8v-91h9.8v40.6h27.58v-40.6h9.8v91h-9.8v-42H235.28Z"/><path class="cls-5" d="M312.84,372.67h14.7l20.58,91h-9.8l-4.76-21H306.82l-4.76,21h-9.8Zm7.28,10.92-11.48,50.68h23Z"/><path class="cls-5" d="M387.31,455.27v8.4h-23.8v-8.4h7v-74.2h-7v-8.4h23.8v8.4h-7v74.2Z"/><path class="cls-5" d="M411.11,463.67v-91h9.8v82.6h25.62v8.4Z"/></g></svg>